<?xml version="1.0" encoding="UTF-8"?>
<svg width="1440px" height="572px" viewBox="0 0 1440 572" version="1.1" xmlns="http://www.w3.org/2000/svg" xmlns:xlink="http://www.w3.org/1999/xlink">
    <!-- Generator: Sketch 55.2 (78181) - https://sketchapp.com -->
    <title>Path</title>
    <desc>Created with Sketch.</desc>
    <defs>
        <linearGradient x1="50%" y1="0%" x2="50%" y2="100%" id="linearGradient-1">
            <stop stop-color="#EB84FF" offset="0%"></stop>
            <stop stop-color="#FF8080" offset="100%"></stop>
        </linearGradient>
    </defs>
    <g id="Page-1" stroke="none" stroke-width="1" fill="none" fill-rule="evenodd">
        <g id="Desktop-HD" transform="translate(0.000000, -2325.000000)" fill="url(#linearGradient-1)" fill-rule="nonzero">
            <path d="M0,2611 L60,2599.15781 C120,2586.42188 240,2564.07812 360,2539.5 C480,2514.92188 600,2492.57812 720,2527.65781 C840,2564.07812 960,2657.92188 1080,2634.90781 C1200,2611 1320,2468 1380,2396.5 L1440,2325 L1440,2897 L1380,2897 C1320,2897 1200,2897 1080,2897 C960,2897 840,2897 720,2897 C600,2897 480,2897 360,2897 C240,2897 120,2897 60,2897 L0,2897 L0,2611 Z" id="Path"></path>
        </g>
    </g>
</svg>