<?xml version="1.0" encoding="UTF-8"?>
<svg width="776px" height="130px" viewBox="0 0 776 130" version="1.1" xmlns="http://www.w3.org/2000/svg" xmlns:xlink="http://www.w3.org/1999/xlink">
    <!-- Generator: Sketch 55.2 (78181) - https://sketchapp.com -->
    <title>Logo-Black</title>
    <desc>Created with Sketch.</desc>
    <g id="Logo-Black" stroke="none" stroke-width="1" fill="none" fill-rule="evenodd">
        <g id="logo" transform="translate(6.000000, 5.000000)" fill="#000000">
            <g id="Group-2">
                <g id="Group" transform="translate(36.890348, 61.318917) rotate(-1.000000) translate(-36.890348, -61.318917) translate(1.890348, 1.318917)">
                    <path d="M9.20037181,118.189754 L27.1810264,72.8575913 L0.654516521,55.0159239 C0.196246137,54.7076923 0.0746156454,54.0863197 0.382847214,53.6280493 C0.429020686,53.5593999 0.48353494,53.4967457 0.545140265,53.4415232 L59.1775379,0.883938873 C59.588785,0.515300466 60.2210071,0.549841629 60.5896455,0.961088719 C60.844622,1.24553642 60.9152724,1.65039433 60.7717085,2.00438998 L41.137073,50.4188939 L69.168612,65.163742 C69.6574005,65.4208493 69.8452153,66.0255174 69.588108,66.514306 C69.5327666,66.619516 69.4591091,66.7140155 69.3705935,66.7933679 L10.7974364,119.303049 C10.3862074,119.671707 9.75398362,119.637197 9.38532497,119.225968 C9.13216965,118.94358 9.06054287,118.542286 9.20037181,118.189754 Z" id="Shape"></path>
                </g>
            </g>
        </g>
        <path d="M169.638672,88.5976562 L169.638672,101 L123.544922,101 L123.544922,30.5410156 L138.291016,30.5410156 L138.291016,88.5976562 L169.638672,88.5976562 Z M227.28125,101 L221.958984,83.9101562 L197.203125,83.9101562 L191.783203,101 L176.988281,101 L201.451172,30.5410156 L218.785156,30.5410156 L243.248047,101 L227.28125,101 Z M209.214844,44.8476562 L200.376953,72.875 L218.833984,72.875 L210.09375,44.8476562 L209.214844,44.8476562 Z M267.248047,30.5410156 L267.248047,75.2675781 C267.248047,84.3007812 272.619141,90.1601562 282.042969,90.1601562 C291.466797,90.1601562 296.789062,84.3007812 296.789062,75.2675781 L296.789062,30.5410156 L311.535156,30.5410156 L311.535156,76.6835938 C311.535156,92.2597656 300.060547,102.806641 282.042969,102.806641 C264.025391,102.806641 252.501953,92.2597656 252.501953,76.6835938 L252.501953,30.5410156 L267.248047,30.5410156 Z M342.322266,75.21875 L342.322266,101 L327.576172,101 L327.576172,30.5410156 L357.166016,30.5410156 C372.644531,30.5410156 382.166016,39.0859375 382.166016,53.0019531 C382.166016,62.0351562 377.478516,69.8476562 369.373047,73.0214844 L384.216797,101 L367.517578,101 L354.382812,75.21875 L342.322266,75.21875 Z M342.322266,42.0644531 L342.322266,64.2324219 L355.261719,64.2324219 C362.683594,64.2324219 367.029297,60.1796875 367.029297,53.1972656 C367.029297,46.3613281 362.439453,42.0644531 355.115234,42.0644531 L342.322266,42.0644531 Z M426.820312,28.734375 C447.572266,28.734375 460.707031,42.9433594 460.707031,65.7460938 C460.707031,88.5488281 447.621094,102.806641 426.820312,102.806641 C405.873047,102.806641 392.884766,88.5488281 392.884766,65.7460938 C392.884766,42.8945312 406.068359,28.734375 426.820312,28.734375 Z M426.820312,41.234375 C415.345703,41.234375 407.972656,50.7558594 407.972656,65.7460938 C407.972656,80.6875 415.199219,90.3066406 426.820312,90.3066406 C438.294922,90.3066406 445.619141,80.6875 445.619141,65.7460938 C445.619141,50.7558594 438.246094,41.234375 426.820312,41.234375 Z M495.279297,81.5175781 L509.537109,81.5175781 C510.220703,87.3769531 515.982422,91.1367188 524.283203,91.1367188 C531.949219,91.1367188 537.369141,87.2792969 537.369141,81.8105469 C537.369141,77.171875 533.853516,74.4863281 525.210938,72.5820312 L516.03125,70.5800781 C503.189453,67.8457031 496.890625,61.2539062 496.890625,50.5605469 C496.890625,37.4257812 507.583984,28.734375 523.84375,28.734375 C539.371094,28.734375 550.357422,37.3769531 550.796875,49.828125 L536.929688,49.828125 C536.246094,44.0664062 531.070312,40.3066406 523.941406,40.3066406 C516.568359,40.3066406 511.685547,43.8710938 511.685547,49.3886719 C511.685547,53.8320312 515.054688,56.4199219 523.306641,58.2265625 L531.802734,60.0332031 C545.962891,63.0605469 552.066406,69.1640625 552.066406,80.0527344 C552.066406,94.1152344 541.177734,102.806641 523.501953,102.806641 C506.705078,102.806641 495.816406,94.5546875 495.279297,81.5175781 Z M579.728516,101 L564.982422,101 L564.982422,30.5410156 L579.728516,30.5410156 L579.728516,101 Z M641.912109,88.5976562 L641.912109,101 L595.818359,101 L595.818359,30.5410156 L610.564453,30.5410156 L610.564453,88.5976562 L641.912109,88.5976562 Z M683.832031,101 L666.009766,101 L642.181641,30.5410156 L658.832031,30.5410156 L674.847656,84.8867188 L675.726562,84.8867188 L691.449219,30.5410156 L707.318359,30.5410156 L683.832031,101 Z M757.246094,101 L751.923828,83.9101562 L727.167969,83.9101562 L721.748047,101 L706.953125,101 L731.416016,30.5410156 L748.75,30.5410156 L773.212891,101 L757.246094,101 Z M739.179688,44.8476562 L730.341797,72.875 L748.798828,72.875 L740.058594,44.8476562 L739.179688,44.8476562 Z" id="LAUROSILVA" fill="#000000" fill-rule="nonzero"></path>
    </g>
</svg>