<?xml version="1.0" encoding="UTF-8"?>
<svg width="780px" height="130px" viewBox="0 0 780 130" version="1.1" xmlns="http://www.w3.org/2000/svg" xmlns:xlink="http://www.w3.org/1999/xlink">
    <!-- Generator: Sketch 55.2 (78181) - https://sketchapp.com -->
    <title>Logo-Black</title>
    <desc>Created with Sketch.</desc>
    <g id="Logo-Black" stroke="none" stroke-width="1" fill="none" fill-rule="evenodd">
        <g id="logo" transform="translate(8.000000, 11.000000)" fill="#000000">
            <g id="Group-2">
                <g id="Group" transform="translate(34.812789, 57.312318) rotate(-1.000000) translate(-34.812789, -57.312318) translate(1.812789, 1.312318)">
                    <path d="M9.25084366,109.735677 L25.8951868,67.6410594 L1.25423487,51.0156719 C0.796411889,50.7067762 0.675682485,50.0852279 0.984578199,49.6274049 C1.0302887,49.5596561 1.08413211,49.4977664 1.14490368,49.4431205 L55.4807707,0.584262513 C55.8914439,0.214984849 56.5237189,0.248542536 56.8929966,0.659215705 C57.1485279,0.943391688 57.2197489,1.34835758 57.0765073,1.70266545 L38.8953398,46.673752 L64.9244439,60.4082107 C65.4129003,60.6659486 65.5999347,61.2708585 65.3421969,61.7593149 C65.2871659,61.8636078 65.2141223,61.9573452 65.1264413,62.0361959 L10.8494601,110.846936 C10.4388051,111.216234 9.80652837,111.182708 9.43723049,110.772053 C9.18351952,110.489929 9.11132827,110.088521 9.25084366,109.735677 Z" id="Shape"></path>
                </g>
            </g>
            <path d="M124,88.8033241 L124,19.1966759 L139.207173,19.1966759 L139.207173,75.3407202 L165.819726,75.3407202 L165.819726,88.8033241 L124,88.8033241 Z M220.045304,88.8033241 L215.042945,72.2493075 L191.731949,72.2493075 L186.729589,88.8033241 L171.322322,88.8033241 L194.333176,19.1966759 L213.142048,19.1966759 L235.852761,88.8033241 L220.045304,88.8033241 Z M203.537518,32.9584488 L203.037282,32.9584488 L195.333648,59.3850416 L211.341199,59.3850416 L203.537518,32.9584488 Z M259.964134,19.1966759 L259.964134,61.8781163 C259.964134,66.7978085 260.931247,70.470902 262.865503,72.8975069 C264.799758,75.3241119 268.034585,76.5373961 272.57008,76.5373961 C277.105576,76.5373961 280.340402,75.3241119 282.274658,72.8975069 C284.208913,70.470902 285.176026,66.7978085 285.176026,61.8781163 L285.176026,19.1966759 L299.983011,19.1966759 L299.983011,60.2825485 C299.983011,65.4016876 299.499454,69.8393164 298.532327,73.5955679 C297.565199,77.3518193 295.981134,80.4432012 293.780085,82.8698061 C291.579036,85.296411 288.744394,87.0914069 285.276074,88.2548476 C281.807754,89.4182884 277.572465,90 272.57008,90 C267.567696,90 263.332407,89.4182884 259.864087,88.2548476 C256.395767,87.0914069 253.561125,85.296411 251.360076,82.8698061 C249.159026,80.4432012 247.574962,77.3518193 246.607834,73.5955679 C245.640706,69.8393164 245.15715,65.4016876 245.15715,60.2825485 L245.15715,19.1966759 L259.964134,19.1966759 Z M330.197263,88.8033241 L314.99009,88.8033241 L314.99009,19.1966759 L348.10571,19.1966759 C351.307236,19.1966759 354.208576,19.7285265 356.809816,20.7922438 C359.411056,21.855961 361.628747,23.3684112 363.462954,25.3296399 C365.297162,27.2908685 366.714483,29.6343354 367.71496,32.3601108 C368.715437,35.0858862 369.215668,38.1107867 369.215668,41.434903 C369.215668,46.1551483 368.165183,50.2769907 366.064181,53.800554 C363.96318,57.3241173 360.778376,59.8836485 356.509674,61.4792244 L370.21614,88.8033241 L353.308164,88.8033241 L341.102407,63.2742382 L330.197263,63.2742382 L330.197263,88.8033241 Z M346.204814,50.5096953 C348.472561,50.5096953 350.256718,49.9279837 351.557338,48.7645429 C352.857958,47.6011022 353.508259,45.889208 353.508259,43.6288089 L353.508259,39.2409972 C353.508259,36.9805981 352.857958,35.2687039 351.557338,34.1052632 C350.256718,32.9418224 348.472561,32.3601108 346.204814,32.3601108 L330.197263,32.3601108 L330.197263,50.5096953 L346.204814,50.5096953 Z M410.435111,90 C405.832917,90 401.630977,89.2354647 397.829165,87.7063712 C394.027352,86.1772777 390.792526,83.9002921 388.124587,80.8753463 C385.456649,77.8504004 383.389027,74.0942053 381.921661,69.6066482 C380.454295,65.1190911 379.720623,59.9169271 379.720623,54 C379.720623,48.0830729 380.454295,42.8809089 381.921661,38.3933518 C383.389027,33.9057947 385.456649,30.1495996 388.124587,27.1246537 C390.792526,24.0997079 394.027352,21.8227223 397.829165,20.2936288 C401.630977,18.7645353 405.832917,18 410.435111,18 C415.037305,18 419.239245,18.7645353 423.041057,20.2936288 C426.842869,21.8227223 430.077696,24.0997079 432.745635,27.1246537 C435.413573,30.1495996 437.481194,33.9057947 438.948561,38.3933518 C440.415927,42.8809089 441.149599,48.0830729 441.149599,54 C441.149599,59.9169271 440.415927,65.1190911 438.948561,69.6066482 C437.481194,74.0942053 435.413573,77.8504004 432.745635,80.8753463 C430.077696,83.9002921 426.842869,86.1772777 423.041057,87.7063712 C419.239245,89.2354647 415.037305,90 410.435111,90 Z M410.435111,76.5373961 C415.037305,76.5373961 418.622293,75.0415662 421.190184,72.0498615 C423.758075,69.0581568 425.042001,64.770111 425.042001,59.1855956 L425.042001,48.8144044 C425.042001,43.229889 423.758075,38.9418432 421.190184,35.9501385 C418.622293,32.9584338 415.037305,31.4626039 410.435111,31.4626039 C405.832917,31.4626039 402.247929,32.9584338 399.680038,35.9501385 C397.112147,38.9418432 395.828221,43.229889 395.828221,48.8144044 L395.828221,59.1855956 C395.828221,64.770111 397.112147,69.0581568 399.680038,72.0498615 C402.247929,75.0415662 405.832917,76.5373961 410.435111,76.5373961 Z M500.077395,90 C493.941137,90 488.738735,88.9529191 484.470033,86.8587258 C480.201331,84.7645325 476.56632,82.0554183 473.564889,78.7313019 L483.569608,68.6592798 C488.305199,73.9778659 494.141227,76.6371191 501.077867,76.6371191 C504.812981,76.6371191 507.580934,75.8725838 509.381784,74.3434903 C511.182642,72.8143968 512.083058,70.7867162 512.083058,68.2603878 C512.083058,66.3324003 511.549478,64.7202281 510.482303,63.4238227 C509.415128,62.1274173 507.24746,61.2465397 503.979235,60.7811634 L497.075979,59.8836565 C489.67245,58.9529039 484.253281,56.7257794 480.818311,53.2022161 C477.38334,49.6786527 475.66588,44.991719 475.66588,39.1412742 C475.66588,36.0166049 476.266157,33.1579077 477.46673,30.565097 C478.667302,27.9722862 480.384762,25.7451617 482.61916,23.8836565 C484.853558,22.0221514 487.588154,20.5761824 490.82303,19.5457064 C494.057905,18.5152303 497.74294,18 501.878244,18 C507.147423,18 511.782896,18.8310166 515.784804,20.4930748 C519.786712,22.155133 523.221631,24.5817015 526.089665,27.7728532 L515.984899,37.9445983 C514.317437,36.0166109 512.299839,34.4376793 509.932043,33.2077562 C507.564248,31.9778332 504.579537,31.3628809 500.97782,31.3628809 C497.576198,31.3628809 495.041695,31.9612188 493.374233,33.1578947 C491.706772,34.3545766 490.873053,36.0166099 490.873053,38.1440443 C490.873053,40.5374081 491.523354,42.2659227 492.823974,43.3296399 C494.124594,44.3933571 496.242238,45.1578924 499.17697,45.6232687 L506.080227,46.7202216 C513.28366,47.8504212 518.619457,50.0609254 522.087777,53.3518006 C525.556097,56.6426757 527.290231,61.3129891 527.290231,67.3628809 C527.290231,70.6869972 526.689954,73.7451384 525.489382,76.5373961 C524.288809,79.3296539 522.538001,81.7229817 520.236904,83.7174515 C517.935807,85.7119213 515.084491,87.2576122 511.682869,88.3545706 C508.281248,89.451529 504.412795,90 500.077395,90 Z M537.194903,88.8033241 L537.194903,76.7368421 L546.199151,76.7368421 L546.199151,31.2631579 L537.194903,31.2631579 L537.194903,19.1966759 L570.410571,19.1966759 L570.410571,31.2631579 L561.406324,31.2631579 L561.406324,76.7368421 L570.410571,76.7368421 L570.410571,88.8033241 L537.194903,88.8033241 Z M583.116564,88.8033241 L583.116564,19.1966759 L598.323738,19.1966759 L598.323738,75.3407202 L624.936291,75.3407202 L624.936291,88.8033241 L583.116564,88.8033241 Z M652.349221,88.8033241 L629.838603,19.1966759 L645.245871,19.1966759 L655.650779,52.6038781 L661.153374,74.4432133 L661.453516,74.4432133 L666.756017,52.6038781 L677.160925,19.1966759 L692.067957,19.1966759 L669.357244,88.8033241 L652.349221,88.8033241 Z M744.192544,88.8033241 L739.190184,72.2493075 L715.879188,72.2493075 L710.876829,88.8033241 L695.469561,88.8033241 L718.480415,19.1966759 L737.289287,19.1966759 L760,88.8033241 L744.192544,88.8033241 Z M727.684757,32.9584488 L727.184521,32.9584488 L719.480887,59.3850416 L735.488438,59.3850416 L727.684757,32.9584488 Z" id="LAUROSILVA" fill-rule="nonzero"></path>
        </g>
    </g>
</svg>