<?xml version="1.0" encoding="UTF-8"?>
<svg width="56px" height="96px" viewBox="0 0 56 96" version="1.1" xmlns="http://www.w3.org/2000/svg" xmlns:xlink="http://www.w3.org/1999/xlink">
    <!-- Generator: Sketch 55.2 (78181) - https://sketchapp.com -->
    <title>Group 2</title>
    <desc>Created with Sketch.</desc>
    <g id="Page-1" stroke="none" stroke-width="1" fill="none" fill-rule="evenodd">
        <g id="Background-White" transform="translate(-692.000000, -464.000000)" fill="#000000">
            <g id="Group-3" transform="translate(637.000000, 429.000000)">
                <g id="Group-2" transform="translate(54.000000, 34.000000)">
                    <g id="Group" transform="translate(28.863410, 48.622968) rotate(-1.000000) translate(-28.863410, -48.622968) translate(0.863410, 1.122968)">
                        <path d="M8.09531755,93.4966744 L22.0171637,58.0965254 L1.21792533,43.9870758 C0.760878986,43.6770321 0.64170978,43.0551827 0.951753459,42.5981364 C0.996657427,42.5319419 1.04934126,42.471374 1.10867547,42.4177314 L46.6920216,1.20691083 C47.1017002,0.836530117 47.7340633,0.868387368 48.104444,1.27806599 C48.3609355,1.56177156 48.4331432,1.96692544 48.2904568,2.32177372 L33.0704338,40.1725916 L55.0196603,51.8170661 C55.5075394,52.0758951 55.6932212,52.6812216 55.4343922,53.1691007 C55.3799035,53.271809 55.3079209,53.3642283 55.2216791,53.4422051 L9.6966081,94.6044159 C9.28694773,94.9748168 8.65458312,94.9429907 8.28418223,94.5333304 C8.02950954,94.2516644 7.95634222,93.8500576 8.09531755,93.4966744 Z" id="Shape"></path>
                    </g>
                </g>
            </g>
        </g>
    </g>
</svg>