<?xml version="1.0" encoding="UTF-8"?>
<svg width="107px" height="107px" viewBox="0 0 107 107" version="1.1" xmlns="http://www.w3.org/2000/svg" xmlns:xlink="http://www.w3.org/1999/xlink">
    <!-- Generator: Sketch 55.2 (78181) - https://sketchapp.com -->
    <title>Logo-Light</title>
    <desc>Created with Sketch.</desc>
    <g id="Logo-Light" stroke="none" stroke-width="1" fill="none" fill-rule="evenodd">
        <g id="Group-3" transform="translate(6.000000, 6.000000)">
            <circle id="Oval" stroke="#FFFFFF" stroke-width="6" cx="48" cy="48" r="48"></circle>
            <circle id="Oval" fill="#FFFFFF" cx="48" cy="48" r="40"></circle>
            <g id="Group-2" transform="translate(31.000000, 21.000000)" fill="#000000">
                <g id="Group" transform="translate(16.893145, 27.149202) rotate(-1.000000) translate(-16.893145, -27.149202) translate(0.893145, 0.649202)">
                    <path d="M5.35420274,50.8988061 L12.7599471,32.2271871 L1.16081888,24.4254197 C0.702552542,24.1171822 0.580930212,23.495808 0.8891678,23.0375416 C0.935337088,22.9689003 0.989845262,22.9062531 1.05144302,22.8510358 L25.7051751,0.751012552 C26.1164169,0.382368348 26.7486395,0.416900598 27.1172837,0.828142492 C27.3722653,1.11258773 27.4429208,1.51744662 27.2993599,1.8714451 L19.1658196,21.9274571 L31.3437945,28.3333659 C31.83258,28.5904789 32.0203878,29.1951492 31.7632747,29.6839348 C31.7079361,29.7891365 31.6342842,29.8836291 31.5457762,29.962977 L6.95128138,52.0120821 C6.54005763,52.3807465 5.90783334,52.3462454 5.53916889,51.9350216 C5.28600854,51.652636 5.21437665,51.2513405 5.35420274,50.8988061 Z" id="Shape"></path>
                </g>
            </g>
        </g>
    </g>
</svg>