<?xml version="1.0" encoding="UTF-8"?>
<svg width="780px" height="130px" viewBox="0 0 780 130" version="1.1" xmlns="http://www.w3.org/2000/svg" xmlns:xlink="http://www.w3.org/1999/xlink">
    <!-- Generator: Sketch 55.2 (78181) - https://sketchapp.com -->
    <title>Logo-Black</title>
    <desc>Created with Sketch.</desc>
    <g id="Logo-Black" stroke="none" stroke-width="1" fill="none" fill-rule="evenodd">
        <g id="Group-2" transform="translate(8.000000, 11.000000)" fill="#FFFFFF">
            <g id="Group" transform="translate(34.812789, 57.312318) rotate(-1.000000) translate(-34.812789, -57.312318) translate(1.812789, 1.312318)">
                <path d="M9.25084366,109.735677 L25.8951868,67.6410594 L1.25423487,51.0156719 C0.796411889,50.7067762 0.675682485,50.0852279 0.984578199,49.6274049 C1.0302887,49.5596561 1.08413211,49.4977664 1.14490368,49.4431205 L55.4807707,0.584262513 C55.8914439,0.214984849 56.5237189,0.248542536 56.8929966,0.659215705 C57.1485279,0.943391688 57.2197489,1.34835758 57.0765073,1.70266545 L38.8953398,46.673752 L64.9244439,60.4082107 C65.4129003,60.6659486 65.5999347,61.2708585 65.3421969,61.7593149 C65.2871659,61.8636078 65.2141223,61.9573452 65.1264413,62.0361959 L10.8494601,110.846936 C10.4388051,111.216234 9.80652837,111.182708 9.43723049,110.772053 C9.18351952,110.489929 9.11132827,110.088521 9.25084366,109.735677 Z" id="Shape"></path>
            </g>
        </g>
        <path d="M132,99.8033241 L132,30.1966759 L147.207173,30.1966759 L147.207173,86.3407202 L173.819726,86.3407202 L173.819726,99.8033241 L132,99.8033241 Z M228.045304,99.8033241 L223.042945,83.2493075 L199.731949,83.2493075 L194.729589,99.8033241 L179.322322,99.8033241 L202.333176,30.1966759 L221.142048,30.1966759 L243.852761,99.8033241 L228.045304,99.8033241 Z M211.537518,43.9584488 L211.037282,43.9584488 L203.333648,70.3850416 L219.341199,70.3850416 L211.537518,43.9584488 Z M267.964134,30.1966759 L267.964134,72.8781163 C267.964134,77.7978085 268.931247,81.470902 270.865503,83.8975069 C272.799758,86.3241119 276.034585,87.5373961 280.57008,87.5373961 C285.105576,87.5373961 288.340402,86.3241119 290.274658,83.8975069 C292.208913,81.470902 293.176026,77.7978085 293.176026,72.8781163 L293.176026,30.1966759 L307.983011,30.1966759 L307.983011,71.2825485 C307.983011,76.4016876 307.499454,80.8393164 306.532327,84.5955679 C305.565199,88.3518193 303.981134,91.4432012 301.780085,93.8698061 C299.579036,96.296411 296.744394,98.0914069 293.276074,99.2548476 C289.807754,100.418288 285.572465,101 280.57008,101 C275.567696,101 271.332407,100.418288 267.864087,99.2548476 C264.395767,98.0914069 261.561125,96.296411 259.360076,93.8698061 C257.159026,91.4432012 255.574962,88.3518193 254.607834,84.5955679 C253.640706,80.8393164 253.15715,76.4016876 253.15715,71.2825485 L253.15715,30.1966759 L267.964134,30.1966759 Z M338.197263,99.8033241 L322.99009,99.8033241 L322.99009,30.1966759 L356.10571,30.1966759 C359.307236,30.1966759 362.208576,30.7285265 364.809816,31.7922438 C367.411056,32.855961 369.628747,34.3684112 371.462954,36.3296399 C373.297162,38.2908685 374.714483,40.6343354 375.71496,43.3601108 C376.715437,46.0858862 377.215668,49.1107867 377.215668,52.434903 C377.215668,57.1551483 376.165183,61.2769907 374.064181,64.800554 C371.96318,68.3241173 368.778376,70.8836485 364.509674,72.4792244 L378.21614,99.8033241 L361.308164,99.8033241 L349.102407,74.2742382 L338.197263,74.2742382 L338.197263,99.8033241 Z M354.204814,61.5096953 C356.472561,61.5096953 358.256718,60.9279837 359.557338,59.7645429 C360.857958,58.6011022 361.508259,56.889208 361.508259,54.6288089 L361.508259,50.2409972 C361.508259,47.9805981 360.857958,46.2687039 359.557338,45.1052632 C358.256718,43.9418224 356.472561,43.3601108 354.204814,43.3601108 L338.197263,43.3601108 L338.197263,61.5096953 L354.204814,61.5096953 Z M418.435111,101 C413.832917,101 409.630977,100.235465 405.829165,98.7063712 C402.027352,97.1772777 398.792526,94.9002921 396.124587,91.8753463 C393.456649,88.8504004 391.389027,85.0942053 389.921661,80.6066482 C388.454295,76.1190911 387.720623,70.9169271 387.720623,65 C387.720623,59.0830729 388.454295,53.8809089 389.921661,49.3933518 C391.389027,44.9057947 393.456649,41.1495996 396.124587,38.1246537 C398.792526,35.0997079 402.027352,32.8227223 405.829165,31.2936288 C409.630977,29.7645353 413.832917,29 418.435111,29 C423.037305,29 427.239245,29.7645353 431.041057,31.2936288 C434.842869,32.8227223 438.077696,35.0997079 440.745635,38.1246537 C443.413573,41.1495996 445.481194,44.9057947 446.948561,49.3933518 C448.415927,53.8809089 449.149599,59.0830729 449.149599,65 C449.149599,70.9169271 448.415927,76.1190911 446.948561,80.6066482 C445.481194,85.0942053 443.413573,88.8504004 440.745635,91.8753463 C438.077696,94.9002921 434.842869,97.1772777 431.041057,98.7063712 C427.239245,100.235465 423.037305,101 418.435111,101 Z M418.435111,87.5373961 C423.037305,87.5373961 426.622293,86.0415662 429.190184,83.0498615 C431.758075,80.0581568 433.042001,75.770111 433.042001,70.1855956 L433.042001,59.8144044 C433.042001,54.229889 431.758075,49.9418432 429.190184,46.9501385 C426.622293,43.9584338 423.037305,42.4626039 418.435111,42.4626039 C413.832917,42.4626039 410.247929,43.9584338 407.680038,46.9501385 C405.112147,49.9418432 403.828221,54.229889 403.828221,59.8144044 L403.828221,70.1855956 C403.828221,75.770111 405.112147,80.0581568 407.680038,83.0498615 C410.247929,86.0415662 413.832917,87.5373961 418.435111,87.5373961 Z M508.077395,101 C501.941137,101 496.738735,99.9529191 492.470033,97.8587258 C488.201331,95.7645325 484.56632,93.0554183 481.564889,89.7313019 L491.569608,79.6592798 C496.305199,84.9778659 502.141227,87.6371191 509.077867,87.6371191 C512.812981,87.6371191 515.580934,86.8725838 517.381784,85.3434903 C519.182642,83.8143968 520.083058,81.7867162 520.083058,79.2603878 C520.083058,77.3324003 519.549478,75.7202281 518.482303,74.4238227 C517.415128,73.1274173 515.24746,72.2465397 511.979235,71.7811634 L505.075979,70.8836565 C497.67245,69.9529039 492.253281,67.7257794 488.818311,64.2022161 C485.38334,60.6786527 483.66588,55.991719 483.66588,50.1412742 C483.66588,47.0166049 484.266157,44.1579077 485.46673,41.565097 C486.667302,38.9722862 488.384762,36.7451617 490.61916,34.8836565 C492.853558,33.0221514 495.588154,31.5761824 498.82303,30.5457064 C502.057905,29.5152303 505.74294,29 509.878244,29 C515.147423,29 519.782896,29.8310166 523.784804,31.4930748 C527.786712,33.155133 531.221631,35.5817015 534.089665,38.7728532 L523.984899,48.9445983 C522.317437,47.0166109 520.299839,45.4376793 517.932043,44.2077562 C515.564248,42.9778332 512.579537,42.3628809 508.97782,42.3628809 C505.576198,42.3628809 503.041695,42.9612188 501.374233,44.1578947 C499.706772,45.3545766 498.873053,47.0166099 498.873053,49.1440443 C498.873053,51.5374081 499.523354,53.2659227 500.823974,54.3296399 C502.124594,55.3933571 504.242238,56.1578924 507.17697,56.6232687 L514.080227,57.7202216 C521.28366,58.8504212 526.619457,61.0609254 530.087777,64.3518006 C533.556097,67.6426757 535.290231,72.3129891 535.290231,78.3628809 C535.290231,81.6869972 534.689954,84.7451384 533.489382,87.5373961 C532.288809,90.3296539 530.538001,92.7229817 528.236904,94.7174515 C525.935807,96.7119213 523.084491,98.2576122 519.682869,99.3545706 C516.281248,100.451529 512.412795,101 508.077395,101 Z M545.194903,99.8033241 L545.194903,87.7368421 L554.199151,87.7368421 L554.199151,42.2631579 L545.194903,42.2631579 L545.194903,30.1966759 L578.410571,30.1966759 L578.410571,42.2631579 L569.406324,42.2631579 L569.406324,87.7368421 L578.410571,87.7368421 L578.410571,99.8033241 L545.194903,99.8033241 Z M591.116564,99.8033241 L591.116564,30.1966759 L606.323738,30.1966759 L606.323738,86.3407202 L632.936291,86.3407202 L632.936291,99.8033241 L591.116564,99.8033241 Z M660.349221,99.8033241 L637.838603,30.1966759 L653.245871,30.1966759 L663.650779,63.6038781 L669.153374,85.4432133 L669.453516,85.4432133 L674.756017,63.6038781 L685.160925,30.1966759 L700.067957,30.1966759 L677.357244,99.8033241 L660.349221,99.8033241 Z M752.192544,99.8033241 L747.190184,83.2493075 L723.879188,83.2493075 L718.876829,99.8033241 L703.469561,99.8033241 L726.480415,30.1966759 L745.289287,30.1966759 L768,99.8033241 L752.192544,99.8033241 Z M735.684757,43.9584488 L735.184521,43.9584488 L727.480887,70.3850416 L743.488438,70.3850416 L735.684757,43.9584488 Z" id="LAUROSILVA" fill="#FFFFFF" fill-rule="nonzero"></path>
    </g>
</svg>