<?xml version="1.0" encoding="UTF-8"?>
<svg width="939px" height="140px" viewBox="0 0 939 140" version="1.1" xmlns="http://www.w3.org/2000/svg" xmlns:xlink="http://www.w3.org/1999/xlink">
    <!-- Generator: Sketch 55.2 (78181) - https://sketchapp.com -->
    <title>Group</title>
    <desc>Created with Sketch.</desc>
    <g id="Page-1" stroke="none" stroke-width="1" fill="none" fill-rule="evenodd">
        <g id="Group" transform="translate(-21.000000, -17.000000)" fill="#FFFFFF">
            <path d="M181.69,30 L204.37,30 L204.37,109.52 L253.51,109.52 L253.51,128 L181.69,128 L181.69,30 Z M295.93,51.56 C307.596725,51.56 316.556635,54.3366389 322.81,59.89 C329.063365,65.4433611 332.19,73.819944 332.19,85.02 L332.19,128 L311.75,128 L311.75,118.62 C307.643313,125.620035 299.990056,129.12 288.79,129.12 C283.003304,129.12 277.986688,128.14001 273.74,126.18 C269.493312,124.21999 266.250011,121.513351 264.01,118.06 C261.769989,114.606649 260.65,110.686689 260.65,106.3 C260.65,99.299965 263.28664,93.7933534 268.56,89.78 C273.83336,85.7666466 281.976612,83.76 292.99,83.76 L310.35,83.76 C310.35,78.9999762 308.903348,75.3366795 306.01,72.77 C303.116652,70.2033205 298.776696,68.92 292.99,68.92 C288.976647,68.92 285.033353,69.5499937 281.16,70.81 C277.286647,72.0700063 273.99668,73.7733226 271.29,75.92 L263.45,60.66 C267.556687,57.7666522 272.479971,55.5266746 278.22,53.94 C283.960029,52.3533254 289.863303,51.56 295.93,51.56 Z M294.25,114.42 C297.983352,114.42 301.296652,113.556675 304.19,111.83 C307.083348,110.103325 309.136661,107.560017 310.35,104.2 L310.35,96.5 L295.37,96.5 C286.409955,96.5 281.93,99.4399706 281.93,105.32 C281.93,108.120014 283.026656,110.336658 285.22,111.97 C287.413344,113.603341 290.423314,114.42 294.25,114.42 Z M427.81,52.68 L427.81,128 L407.09,128 L407.09,119.04 C404.196652,122.306683 400.743353,124.803325 396.73,126.53 C392.716647,128.256675 388.37669,129.12 383.71,129.12 C373.816617,129.12 365.976696,126.273362 360.19,120.58 C354.403304,114.886638 351.51,106.440056 351.51,95.24 L351.51,52.68 L373.35,52.68 L373.35,92.02 C373.35,104.153394 378.436616,110.22 388.61,110.22 C393.836693,110.22 398.036651,108.516684 401.21,105.11 C404.383349,101.703316 405.97,96.6400336 405.97,89.92 L405.97,52.68 L427.81,52.68 Z M468.97,62.62 C471.583346,58.9799818 475.106645,56.226676 479.54,54.36 C483.973356,52.493324 489.083304,51.56 494.87,51.56 L494.87,71.72 C492.443321,71.5333324 490.810004,71.44 489.97,71.44 C483.716635,71.44 478.816684,73.1899825 475.27,76.69 C471.723316,80.1900175 469.95,85.439965 469.95,92.44 L469.95,128 L448.11,128 L448.11,52.68 L468.97,52.68 L468.97,62.62 Z M543.03,129.12 C535.096627,129.12 527.980031,127.46335 521.68,124.15 C515.379969,120.83665 510.456684,116.240029 506.91,110.36 C503.363316,104.479971 501.59,97.806704 501.59,90.34 C501.59,82.873296 503.363316,76.2000294 506.91,70.32 C510.456684,64.4399706 515.379969,59.8433499 521.68,56.53 C527.980031,53.2166501 535.096627,51.56 543.03,51.56 C550.963373,51.56 558.056635,53.2166501 564.31,56.53 C570.563365,59.8433499 575.463316,64.4399706 579.01,70.32 C582.556684,76.2000294 584.33,82.873296 584.33,90.34 C584.33,97.806704 582.556684,104.479971 579.01,110.36 C575.463316,116.240029 570.563365,120.83665 564.31,124.15 C558.056635,127.46335 550.963373,129.12 543.03,129.12 Z M543.03,111.2 C548.630028,111.2 553.226649,109.310019 556.82,105.53 C560.413351,101.749981 562.21,96.6866984 562.21,90.34 C562.21,83.9933016 560.413351,78.9300189 556.82,75.15 C553.226649,71.3699811 548.630028,69.48 543.03,69.48 C537.429972,69.48 532.810018,71.3699811 529.17,75.15 C525.529982,78.9300189 523.71,83.9933016 523.71,90.34 C523.71,96.6866984 525.529982,101.749981 529.17,105.53 C532.810018,109.310019 537.429972,111.2 543.03,111.2 Z M672.25,129.68 C664.503295,129.68 657.01337,128.630011 649.78,126.53 C642.546631,124.429989 636.736689,121.700017 632.35,118.34 L640.05,101.26 C644.250021,104.340015 649.243304,106.813324 655.03,108.68 C660.816696,110.546676 666.603304,111.48 672.39,111.48 C678.830032,111.48 683.589985,110.523343 686.67,108.61 C689.750015,106.696657 691.29,104.153349 691.29,100.98 C691.29,98.646655 690.380009,96.7100077 688.56,95.17 C686.739991,93.6299923 684.406681,92.393338 681.56,91.46 C678.713319,90.526662 674.863358,89.5000056 670.01,88.38 C662.543296,86.6066578 656.430024,84.8333422 651.67,83.06 C646.909976,81.2866578 642.826684,78.4400196 639.42,74.52 C636.013316,70.5999804 634.31,65.373366 634.31,58.84 C634.31,53.1466382 635.849985,47.9900231 638.93,43.37 C642.010015,38.7499769 646.653302,35.0866802 652.86,32.38 C659.066698,29.6733198 666.649955,28.32 675.61,28.32 C681.863365,28.32 687.976637,29.0666592 693.95,30.56 C699.923363,32.0533408 705.149978,34.199986 709.63,37 L702.63,54.22 C693.576621,49.086641 684.523379,46.52 675.47,46.52 C669.123302,46.52 664.433349,47.5466564 661.4,49.6 C658.366652,51.6533436 656.85,54.3599832 656.85,57.72 C656.85,61.0800168 658.599983,63.5766585 662.1,65.21 C665.600018,66.8433415 670.943297,68.4533254 678.13,70.04 C685.596704,71.8133422 691.709976,73.5866578 696.47,75.36 C701.230024,77.1333422 705.313316,79.9333142 708.72,83.76 C712.126684,87.5866858 713.83,92.766634 713.83,99.3 C713.83,104.900028 712.266682,110.009977 709.14,114.63 C706.013318,119.250023 701.323365,122.91332 695.07,125.62 C688.816635,128.32668 681.210045,129.68 672.25,129.68 Z M727.83,52.68 L749.67,52.68 L749.67,128 L727.83,128 L727.83,52.68 Z M738.75,42.18 C734.736647,42.18 731.470013,41.013345 728.95,38.68 C726.429987,36.346655 725.17,33.4533506 725.17,30 C725.17,26.5466494 726.429987,23.653345 728.95,21.32 C731.470013,18.986655 734.736647,17.82 738.75,17.82 C742.763353,17.82 746.029987,18.9399888 748.55,21.18 C751.070013,23.4200112 752.33,26.2199832 752.33,29.58 C752.33,33.2200182 751.070013,36.2299881 748.55,38.61 C746.029987,40.9900119 742.763353,42.18 738.75,42.18 Z M769.97,24.12 L791.81,24.12 L791.81,128 L769.97,128 L769.97,24.12 Z M886.87,52.68 L855.09,128 L832.55,128 L800.91,52.68 L823.45,52.68 L844.31,103.92 L865.87,52.68 L886.87,52.68 Z M923.69,51.56 C935.356725,51.56 944.316635,54.3366389 950.57,59.89 C956.823365,65.4433611 959.95,73.819944 959.95,85.02 L959.95,128 L939.51,128 L939.51,118.62 C935.403313,125.620035 927.750056,129.12 916.55,129.12 C910.763304,129.12 905.746688,128.14001 901.5,126.18 C897.253312,124.21999 894.010011,121.513351 891.77,118.06 C889.529989,114.606649 888.41,110.686689 888.41,106.3 C888.41,99.299965 891.04664,93.7933534 896.32,89.78 C901.59336,85.7666466 909.736612,83.76 920.75,83.76 L938.11,83.76 C938.11,78.9999762 936.663348,75.3366795 933.77,72.77 C930.876652,70.2033205 926.536696,68.92 920.75,68.92 C916.736647,68.92 912.793353,69.5499937 908.92,70.81 C905.046647,72.0700063 901.75668,73.7733226 899.05,75.92 L891.21,60.66 C895.316687,57.7666522 900.239971,55.5266746 905.98,53.94 C911.720029,52.3533254 917.623303,51.56 923.69,51.56 Z M922.01,114.42 C925.743352,114.42 929.056652,113.556675 931.95,111.83 C934.843348,110.103325 936.896661,107.560017 938.11,104.2 L938.11,96.5 L923.13,96.5 C914.169955,96.5 909.69,99.4399706 909.69,105.32 C909.69,108.120014 910.786656,110.336658 912.98,111.97 C915.173344,113.603341 918.183314,114.42 922.01,114.42 Z" id="LauroSilva" fill-rule="nonzero"></path>
            <text id="⚡️" font-family="AppleColorEmoji, Apple Color Emoji" font-size="140" font-weight="normal">
                <tspan x="0" y="140">⚡️</tspan>
            </text>
        </g>
    </g>
</svg>